<?xml version="1.0" encoding="utf-8" ?><svg xmlns="http://www.w3.org/2000/svg" xmlns:xlink="http://www.w3.org/1999/xlink" width="1024" height="1024" viewBox="0 0 1024 1024"><path fill="#FEFDFD" d="M0 0L1024 0L1024 1024L0 1024L0 0Z"/><path fill="#1E1728" d="M356.994 313.542L667.368 313.608C667.501 339.522 667.502 365.437 667.372 391.351C630.326 391.38 592.499 390.993 555.531 391.451L555.478 458.416C543.109 458.098 530.699 458.442 518.371 458.067C514.401 458.059 510.431 458.091 506.461 458.164L469.098 458.183L469.015 391.433L357.192 391.375L356.994 313.542Z"/><path fill="#FEFDFD" d="M506.461 440.647C510.394 440.702 514.322 440.915 518.238 441.288C518.324 446.88 518.368 452.473 518.371 458.067C514.401 458.059 510.431 458.091 506.461 458.164C506.411 452.325 506.411 446.486 506.461 440.647Z"/><path fill="#1E1728" d="M468.949 545.162C481.323 544.981 493.699 544.948 506.073 545.066C506.076 560.1 506.274 575.8 505.924 590.779C505.291 612.014 504.375 633.239 503.175 654.449C502.263 673.025 501.542 694.959 499.398 713.215C460.502 712.548 420.012 713.016 381.04 712.992C379.298 712.519 379.188 712.492 377.608 711.642C396.678 706.304 412.555 699.218 426.808 684.602C450.041 660.777 465.093 619.476 468.838 586.592C469.808 578.065 469.034 554.592 468.949 545.162Z"/><path fill="#1E1728" d="M518.474 545.173C530.801 545.32 543.128 545.403 555.456 545.423C555.432 556.097 554.909 577.809 555.982 587.585C559.487 619.498 574.759 661.256 597.293 684.379C611.004 698.449 628.401 706.644 646.977 711.685C647.982 711.82 648.935 711.97 649.934 712.13L649.953 712.924L648.561 713.127C646.324 712.97 643.997 713.01 641.723 712.926C638.782 713.189 632.759 713.026 629.605 713.038L604.464 713.086L525.169 713.202C522.757 676.447 520.426 639.759 518.936 602.95C518.158 583.713 518.446 564.426 518.474 545.173Z"/><path fill="#302B2B" d="M646.977 711.685C647.982 711.82 648.935 711.97 649.934 712.13L649.953 712.924L648.561 713.127C646.324 712.97 643.997 713.01 641.723 712.926C643.962 712.439 645.162 712.914 646.977 711.685Z"/><path fill="#D98A31" d="M518.496 489.447C530.341 489.041 543.447 489.522 555.473 489.379L555.5 513.864C577.819 513.791 600.138 513.831 622.457 513.986L622.328 545.044L581.423 545.147C573.132 545.155 563.655 544.944 555.456 545.423C543.128 545.403 530.801 545.32 518.474 545.173C514.722 544.943 509.905 545.07 506.073 545.066C493.699 544.948 481.323 544.981 468.949 545.162C448.665 545.895 422.901 545.111 402.173 545.087C401.81 535.027 402.005 523.871 401.97 513.729C416.739 513.601 431.508 513.58 446.277 513.666C452.238 513.674 462.9 514.001 468.552 513.448C469.248 511.884 469.088 510.531 469.144 508.76L469.062 489.521C479.271 489.166 495.841 489.229 506.131 489.532C510.157 489.328 514.434 489.507 518.496 489.447Z"/><path fill="#1E1728" d="M518.496 489.447C530.341 489.041 543.447 489.522 555.473 489.379L555.5 513.864C544.625 513.069 528.913 514.646 518.465 513.745C515.163 513.512 509.557 513.551 506.102 513.635C506.058 505.601 506.068 497.566 506.131 489.532C510.157 489.328 514.434 489.507 518.496 489.447Z"/><path fill="#FEFDFD" d="M506.131 489.532C510.157 489.328 514.434 489.507 518.496 489.447L518.465 513.745C515.163 513.512 509.557 513.551 506.102 513.635C506.058 505.601 506.068 497.566 506.131 489.532Z"/><path fill="#1E1728" d="M469.062 489.521C479.271 489.166 495.841 489.229 506.131 489.532C506.068 497.566 506.058 505.601 506.102 513.635C504.474 514.008 470.759 513.949 469.776 513.66C469.029 512.895 469.217 509.909 469.144 508.76L469.062 489.521Z"/><path fill="#D6302A" d="M518.371 458.067C530.699 458.442 543.109 458.098 555.478 458.416L621.508 458.486L621.543 489.182C599.664 489.541 577.199 488.856 555.473 489.379C543.447 489.522 530.341 489.041 518.496 489.447C514.434 489.507 510.157 489.328 506.131 489.532C495.841 489.229 479.271 489.166 469.062 489.521C447.524 489.12 425.008 489.349 403.445 489.421L403.38 458.475C424.789 458.443 447.831 458.825 469.098 458.183L506.461 458.164C510.431 458.091 514.401 458.059 518.371 458.067Z"/><path fill="#302B2B" d="M374.319 712.08C375.413 711.92 376.51 711.773 377.608 711.642C379.188 712.492 379.298 712.519 381.04 712.992C378.708 713.033 376.397 713.033 374.063 713.092C374.119 712.606 374.078 712.486 374.319 712.08Z"/><path fill="#A6A7A4" d="M649.934 712.13C651.282 712.32 652.532 712.537 653.903 712.703L654.129 712.789C654.113 714.151 649.293 713.267 648.561 713.127L649.953 712.924L649.934 712.13Z"/><path fill="#737371" d="M649.934 712.13C651.282 712.32 652.532 712.537 653.903 712.703C651.976 713.074 651.924 713.062 649.953 712.924L649.934 712.13Z"/><path fill="#A6A7A4" d="M374.063 713.092C373.341 713.277 370.876 713.656 370.434 713.435C368.581 712.505 374.301 712.083 374.319 712.08C374.078 712.486 374.119 712.606 374.063 713.092Z"/></svg>